<mxfile host="Electron" modified="2023-07-30T21:25:16.904Z" agent="Mozilla/5.0 (Macintosh; Intel Mac OS X 10_15_7) AppleWebKit/537.36 (KHTML, like Gecko) draw.io/21.3.7 Chrome/112.0.5615.204 Electron/24.5.0 Safari/537.36" etag="S27gPvbXr6gvTBCosIB6" version="21.3.7" type="device">
  <diagram name="Page-1" id="YALLlvi9PDNdg-UpBMy3">
    <mxGraphModel dx="2165" dy="1605" grid="1" gridSize="10" guides="1" tooltips="1" connect="1" arrows="1" fold="1" page="1" pageScale="1" pageWidth="850" pageHeight="1100" math="0" shadow="0">
      <root>
        <mxCell id="0" />
        <mxCell id="1" parent="0" />
        <mxCell id="Yb9R1OPr1AsJKTSunRYk-22" style="edgeStyle=orthogonalEdgeStyle;rounded=0;orthogonalLoop=1;jettySize=auto;html=1;entryX=0.5;entryY=0;entryDx=0;entryDy=0;" parent="1" source="Yb9R1OPr1AsJKTSunRYk-4" target="Yb9R1OPr1AsJKTSunRYk-16" edge="1">
          <mxGeometry relative="1" as="geometry" />
        </mxCell>
        <mxCell id="Yb9R1OPr1AsJKTSunRYk-4" value="Build Client and Server Image using GHA" style="rounded=1;whiteSpace=wrap;html=1;arcSize=40;fontColor=#000000;fillColor=#ffffc0;strokeColor=#ff0000;" parent="1" vertex="1">
          <mxGeometry x="290" y="410" width="147.5" height="50" as="geometry" />
        </mxCell>
        <mxCell id="Yb9R1OPr1AsJKTSunRYk-28" style="edgeStyle=orthogonalEdgeStyle;rounded=0;orthogonalLoop=1;jettySize=auto;html=1;entryX=0.5;entryY=0;entryDx=0;entryDy=0;" parent="1" source="Yb9R1OPr1AsJKTSunRYk-6" target="Yb9R1OPr1AsJKTSunRYk-8" edge="1">
          <mxGeometry relative="1" as="geometry" />
        </mxCell>
        <mxCell id="Yb9R1OPr1AsJKTSunRYk-6" value="" style="ellipse;html=1;shape=startState;fillColor=#000000;strokeColor=#ff0000;" parent="1" vertex="1">
          <mxGeometry x="348.74" y="20" width="30" height="30" as="geometry" />
        </mxCell>
        <mxCell id="rLy051XmO3cAMsUHS-e7-9" style="edgeStyle=orthogonalEdgeStyle;rounded=0;orthogonalLoop=1;jettySize=auto;html=1;" edge="1" parent="1" source="Yb9R1OPr1AsJKTSunRYk-8" target="rLy051XmO3cAMsUHS-e7-1">
          <mxGeometry relative="1" as="geometry" />
        </mxCell>
        <mxCell id="Yb9R1OPr1AsJKTSunRYk-8" value="The developer pushes code to GitHub" style="rounded=1;whiteSpace=wrap;html=1;arcSize=40;fontColor=#000000;fillColor=#ffffc0;strokeColor=#ff0000;" parent="1" vertex="1">
          <mxGeometry x="296.24" y="120" width="135" height="50" as="geometry" />
        </mxCell>
        <mxCell id="Yb9R1OPr1AsJKTSunRYk-23" style="edgeStyle=orthogonalEdgeStyle;rounded=0;orthogonalLoop=1;jettySize=auto;html=1;exitX=0.5;exitY=1;exitDx=0;exitDy=0;entryX=0.5;entryY=0;entryDx=0;entryDy=0;" parent="1" source="Yb9R1OPr1AsJKTSunRYk-11" target="Yb9R1OPr1AsJKTSunRYk-17" edge="1">
          <mxGeometry relative="1" as="geometry" />
        </mxCell>
        <mxCell id="Yb9R1OPr1AsJKTSunRYk-11" value="Run Automated API Testing using Newman" style="rounded=1;whiteSpace=wrap;html=1;arcSize=40;fontColor=#000000;fillColor=#ffffc0;strokeColor=#ff0000;" parent="1" vertex="1">
          <mxGeometry x="279.99" y="830" width="167.5" height="60" as="geometry" />
        </mxCell>
        <mxCell id="Yb9R1OPr1AsJKTSunRYk-33" style="edgeStyle=orthogonalEdgeStyle;rounded=0;orthogonalLoop=1;jettySize=auto;html=1;entryX=0.5;entryY=0;entryDx=0;entryDy=0;" parent="1" source="Yb9R1OPr1AsJKTSunRYk-12" target="Yb9R1OPr1AsJKTSunRYk-30" edge="1">
          <mxGeometry relative="1" as="geometry" />
        </mxCell>
        <mxCell id="Yb9R1OPr1AsJKTSunRYk-12" value="Deploy the images using Google Cloud" style="rounded=1;whiteSpace=wrap;html=1;arcSize=40;fontColor=#000000;fillColor=#ffffc0;strokeColor=#ff0000;" parent="1" vertex="1">
          <mxGeometry x="279.99" y="610" width="167.5" height="60" as="geometry" />
        </mxCell>
        <mxCell id="Yb9R1OPr1AsJKTSunRYk-19" style="edgeStyle=orthogonalEdgeStyle;rounded=0;orthogonalLoop=1;jettySize=auto;html=1;exitX=1;exitY=0.5;exitDx=0;exitDy=0;" parent="1" source="Yb9R1OPr1AsJKTSunRYk-16" target="Yb9R1OPr1AsJKTSunRYk-29" edge="1">
          <mxGeometry relative="1" as="geometry">
            <mxPoint x="560" y="530" as="targetPoint" />
          </mxGeometry>
        </mxCell>
        <mxCell id="Yb9R1OPr1AsJKTSunRYk-21" value="No" style="edgeLabel;html=1;align=center;verticalAlign=middle;resizable=0;points=[];" parent="Yb9R1OPr1AsJKTSunRYk-19" vertex="1" connectable="0">
          <mxGeometry x="0.0967" y="-1" relative="1" as="geometry">
            <mxPoint x="-43" y="-173" as="offset" />
          </mxGeometry>
        </mxCell>
        <mxCell id="rLy051XmO3cAMsUHS-e7-10" style="edgeStyle=orthogonalEdgeStyle;rounded=0;orthogonalLoop=1;jettySize=auto;html=1;entryX=0.5;entryY=0;entryDx=0;entryDy=0;" edge="1" parent="1" source="Yb9R1OPr1AsJKTSunRYk-16" target="Yb9R1OPr1AsJKTSunRYk-12">
          <mxGeometry relative="1" as="geometry" />
        </mxCell>
        <mxCell id="rLy051XmO3cAMsUHS-e7-13" value="Yes" style="edgeLabel;html=1;align=center;verticalAlign=middle;resizable=0;points=[];" vertex="1" connectable="0" parent="rLy051XmO3cAMsUHS-e7-10">
          <mxGeometry x="-0.1211" y="1" relative="1" as="geometry">
            <mxPoint as="offset" />
          </mxGeometry>
        </mxCell>
        <mxCell id="Yb9R1OPr1AsJKTSunRYk-16" value="Builds are successful?" style="rhombus;whiteSpace=wrap;html=1;fontColor=#000000;fillColor=#ffffc0;strokeColor=#ff0000;" parent="1" vertex="1">
          <mxGeometry x="306.87" y="500" width="113.75" height="60" as="geometry" />
        </mxCell>
        <mxCell id="Yb9R1OPr1AsJKTSunRYk-25" value="No" style="edgeStyle=orthogonalEdgeStyle;rounded=0;orthogonalLoop=1;jettySize=auto;html=1;exitX=1;exitY=0.5;exitDx=0;exitDy=0;entryX=0.5;entryY=0;entryDx=0;entryDy=0;" parent="1" source="Yb9R1OPr1AsJKTSunRYk-17" target="Yb9R1OPr1AsJKTSunRYk-29" edge="1">
          <mxGeometry x="0.2454" relative="1" as="geometry">
            <mxPoint x="580" y="735" as="targetPoint" />
            <mxPoint as="offset" />
          </mxGeometry>
        </mxCell>
        <mxCell id="rLy051XmO3cAMsUHS-e7-12" style="edgeStyle=orthogonalEdgeStyle;rounded=0;orthogonalLoop=1;jettySize=auto;html=1;entryX=0.5;entryY=0;entryDx=0;entryDy=0;" edge="1" parent="1" source="Yb9R1OPr1AsJKTSunRYk-17" target="Yb9R1OPr1AsJKTSunRYk-31">
          <mxGeometry relative="1" as="geometry" />
        </mxCell>
        <mxCell id="rLy051XmO3cAMsUHS-e7-16" value="Yes" style="edgeLabel;html=1;align=center;verticalAlign=middle;resizable=0;points=[];" vertex="1" connectable="0" parent="rLy051XmO3cAMsUHS-e7-12">
          <mxGeometry x="-0.367" y="4" relative="1" as="geometry">
            <mxPoint as="offset" />
          </mxGeometry>
        </mxCell>
        <mxCell id="Yb9R1OPr1AsJKTSunRYk-17" value="Tests Pass?" style="rhombus;whiteSpace=wrap;html=1;fontColor=#000000;fillColor=#ffffc0;strokeColor=#ff0000;" parent="1" vertex="1">
          <mxGeometry x="316.87" y="930" width="93.74" height="50" as="geometry" />
        </mxCell>
        <mxCell id="Yb9R1OPr1AsJKTSunRYk-38" style="edgeStyle=orthogonalEdgeStyle;rounded=0;orthogonalLoop=1;jettySize=auto;html=1;entryX=1;entryY=0.5;entryDx=0;entryDy=0;" parent="1" source="Yb9R1OPr1AsJKTSunRYk-29" target="Yb9R1OPr1AsJKTSunRYk-36" edge="1">
          <mxGeometry relative="1" as="geometry">
            <Array as="points">
              <mxPoint x="634" y="1165" />
            </Array>
          </mxGeometry>
        </mxCell>
        <mxCell id="Yb9R1OPr1AsJKTSunRYk-29" value="GHA Run Fails" style="rounded=1;whiteSpace=wrap;html=1;arcSize=40;fontColor=#000000;fillColor=#ffffc0;strokeColor=#ff0000;" parent="1" vertex="1">
          <mxGeometry x="550" y="1020" width="167.5" height="60" as="geometry" />
        </mxCell>
        <mxCell id="Yb9R1OPr1AsJKTSunRYk-34" style="edgeStyle=orthogonalEdgeStyle;rounded=0;orthogonalLoop=1;jettySize=auto;html=1;entryX=0.5;entryY=0;entryDx=0;entryDy=0;" parent="1" source="Yb9R1OPr1AsJKTSunRYk-30" target="Yb9R1OPr1AsJKTSunRYk-29" edge="1">
          <mxGeometry relative="1" as="geometry" />
        </mxCell>
        <mxCell id="rLy051XmO3cAMsUHS-e7-11" style="edgeStyle=orthogonalEdgeStyle;rounded=0;orthogonalLoop=1;jettySize=auto;html=1;" edge="1" parent="1" source="Yb9R1OPr1AsJKTSunRYk-30" target="Yb9R1OPr1AsJKTSunRYk-11">
          <mxGeometry relative="1" as="geometry" />
        </mxCell>
        <mxCell id="rLy051XmO3cAMsUHS-e7-15" value="Yes" style="edgeLabel;html=1;align=center;verticalAlign=middle;resizable=0;points=[];" vertex="1" connectable="0" parent="rLy051XmO3cAMsUHS-e7-11">
          <mxGeometry x="-0.241" y="-1" relative="1" as="geometry">
            <mxPoint as="offset" />
          </mxGeometry>
        </mxCell>
        <mxCell id="Yb9R1OPr1AsJKTSunRYk-30" value="Deployment Successful?" style="rhombus;whiteSpace=wrap;html=1;fontColor=#000000;fillColor=#ffffc0;strokeColor=#ff0000;" parent="1" vertex="1">
          <mxGeometry x="303.43" y="720" width="120.62" height="60" as="geometry" />
        </mxCell>
        <mxCell id="Yb9R1OPr1AsJKTSunRYk-37" style="edgeStyle=orthogonalEdgeStyle;rounded=0;orthogonalLoop=1;jettySize=auto;html=1;" parent="1" source="Yb9R1OPr1AsJKTSunRYk-31" target="Yb9R1OPr1AsJKTSunRYk-36" edge="1">
          <mxGeometry relative="1" as="geometry" />
        </mxCell>
        <mxCell id="Yb9R1OPr1AsJKTSunRYk-31" value="GHA Run Successful" style="rounded=1;whiteSpace=wrap;html=1;arcSize=40;fontColor=#000000;fillColor=#ffffc0;strokeColor=#ff0000;" parent="1" vertex="1">
          <mxGeometry x="279.99" y="1040" width="167.5" height="60" as="geometry" />
        </mxCell>
        <mxCell id="Yb9R1OPr1AsJKTSunRYk-35" value="No" style="edgeLabel;html=1;align=center;verticalAlign=middle;resizable=0;points=[];" parent="1" vertex="1" connectable="0">
          <mxGeometry x="599.8000000000002" y="349.9999999999998" as="geometry">
            <mxPoint x="-7" y="398" as="offset" />
          </mxGeometry>
        </mxCell>
        <mxCell id="Yb9R1OPr1AsJKTSunRYk-36" value="" style="ellipse;html=1;shape=endState;fillColor=#000000;strokeColor=#ff0000;" parent="1" vertex="1">
          <mxGeometry x="348.74" y="1150" width="30" height="30" as="geometry" />
        </mxCell>
        <mxCell id="rLy051XmO3cAMsUHS-e7-8" style="edgeStyle=orthogonalEdgeStyle;rounded=0;orthogonalLoop=1;jettySize=auto;html=1;" edge="1" parent="1" source="rLy051XmO3cAMsUHS-e7-1" target="rLy051XmO3cAMsUHS-e7-3">
          <mxGeometry relative="1" as="geometry" />
        </mxCell>
        <mxCell id="rLy051XmO3cAMsUHS-e7-1" value="Run Automated tests on the server using Jest" style="rounded=1;whiteSpace=wrap;html=1;arcSize=40;fontColor=#000000;fillColor=#ffffc0;strokeColor=#ff0000;" vertex="1" parent="1">
          <mxGeometry x="296.24" y="220" width="135" height="50" as="geometry" />
        </mxCell>
        <mxCell id="rLy051XmO3cAMsUHS-e7-4" style="edgeStyle=orthogonalEdgeStyle;rounded=0;orthogonalLoop=1;jettySize=auto;html=1;entryX=0.5;entryY=0;entryDx=0;entryDy=0;" edge="1" parent="1" source="rLy051XmO3cAMsUHS-e7-3" target="Yb9R1OPr1AsJKTSunRYk-4">
          <mxGeometry relative="1" as="geometry" />
        </mxCell>
        <mxCell id="rLy051XmO3cAMsUHS-e7-6" value="Yes" style="edgeLabel;html=1;align=center;verticalAlign=middle;resizable=0;points=[];" vertex="1" connectable="0" parent="rLy051XmO3cAMsUHS-e7-4">
          <mxGeometry x="-0.266" y="1" relative="1" as="geometry">
            <mxPoint as="offset" />
          </mxGeometry>
        </mxCell>
        <mxCell id="rLy051XmO3cAMsUHS-e7-5" style="edgeStyle=orthogonalEdgeStyle;rounded=0;orthogonalLoop=1;jettySize=auto;html=1;entryX=0.5;entryY=0;entryDx=0;entryDy=0;" edge="1" parent="1" source="rLy051XmO3cAMsUHS-e7-3" target="Yb9R1OPr1AsJKTSunRYk-29">
          <mxGeometry relative="1" as="geometry" />
        </mxCell>
        <mxCell id="rLy051XmO3cAMsUHS-e7-3" value="Tests Pass?" style="rhombus;whiteSpace=wrap;html=1;fontColor=#000000;fillColor=#ffffc0;strokeColor=#ff0000;" vertex="1" parent="1">
          <mxGeometry x="316.87" y="320" width="93.74" height="50" as="geometry" />
        </mxCell>
        <mxCell id="rLy051XmO3cAMsUHS-e7-7" value="No" style="edgeLabel;html=1;align=center;verticalAlign=middle;resizable=0;points=[];" vertex="1" connectable="0" parent="1">
          <mxGeometry x="589.9977777777776" y="344.99777777777774" as="geometry" />
        </mxCell>
      </root>
    </mxGraphModel>
  </diagram>
</mxfile>
